<svg xmlns="http://www.w3.org/2000/svg" version="1.1" xmlns:xlink="http://www.w3.org/1999/xlink" width="40" height="40"><svg xmlns="http://www.w3.org/2000/svg" xmlns:xlink="http://www.w3.org/1999/xlink" width="40" zoomAndPan="magnify" viewBox="0 0 30 37.92" height="40" preserveAspectRatio="xMidYMid meet" version="1.2"><defs></defs><g id="SvgjsG1371"><g style="fill:#1db309;fill-opacity:1;"><g transform="translate(2.291297, 24.456772)"><path style="stroke:none" d="M 2.921875 0.234375 C 2.441406 0.234375 2.039062 0.0664062 1.71875 -0.265625 C 1.394531 -0.597656 1.234375 -1.015625 1.234375 -1.515625 C 1.234375 -2.023438 1.394531 -2.445312 1.71875 -2.78125 C 2.039062 -3.113281 2.441406 -3.28125 2.921875 -3.28125 C 3.398438 -3.28125 3.796875 -3.113281 4.109375 -2.78125 C 4.429688 -2.445312 4.59375 -2.023438 4.59375 -1.515625 C 4.59375 -1.015625 4.429688 -0.597656 4.109375 -0.265625 C 3.796875 0.0664062 3.398438 0.234375 2.921875 0.234375 Z M 2.921875 0.234375 "></path></g></g><g style="fill:#1db309;fill-opacity:1;"><g transform="translate(8.124076, 24.456772)"><path style="stroke:none" d="M 5.71875 -12.125 C 4.945312 -12.125 4.5625 -11.625 4.5625 -10.625 L 4.5625 -9.890625 L 6.375 -9.890625 L 6.375 -7.734375 L 4.5625 -7.734375 L 4.5625 0 L 1.8125 0 L 1.8125 -7.734375 L 0.5 -7.734375 L 0.5 -9.765625 L 1.8125 -9.875 L 1.8125 -10.578125 C 1.8125 -11.691406 2.09375 -12.585938 2.65625 -13.265625 C 3.226562 -13.941406 4.117188 -14.28125 5.328125 -14.28125 C 6.023438 -14.28125 6.664062 -14.160156 7.25 -13.921875 L 6.75 -11.90625 C 6.394531 -12.050781 6.050781 -12.125 5.71875 -12.125 Z M 5.71875 -12.125 "></path></g></g><g style="fill:#1db309;fill-opacity:1;"><g transform="translate(14.775841, 24.456772)"><path style="stroke:none" d="M 1.359375 -9.890625 L 4.078125 -9.890625 L 4.078125 0 L 1.359375 0 Z M 2.71875 -11.4375 C 2.269531 -11.4375 1.898438 -11.570312 1.609375 -11.84375 C 1.328125 -12.113281 1.1875 -12.460938 1.1875 -12.890625 C 1.1875 -13.316406 1.328125 -13.664062 1.609375 -13.9375 C 1.898438 -14.207031 2.269531 -14.34375 2.71875 -14.34375 C 3.164062 -14.34375 3.53125 -14.207031 3.8125 -13.9375 C 4.101562 -13.664062 4.25 -13.316406 4.25 -12.890625 C 4.25 -12.460938 4.101562 -12.113281 3.8125 -11.84375 C 3.53125 -11.570312 3.164062 -11.4375 2.71875 -11.4375 Z M 2.71875 -11.4375 "></path></g></g><g style="fill:#1db309;fill-opacity:1;"><g transform="translate(20.209115, 24.456772)"><path style="stroke:none" d="M 5.0625 0.234375 C 3.914062 0.234375 3.070312 -0.09375 2.53125 -0.75 C 2 -1.40625 1.734375 -2.328125 1.734375 -3.515625 L 1.734375 -7.734375 L 0.359375 -7.734375 L 0.359375 -9.765625 L 1.875 -9.890625 L 2.203125 -12.53125 L 4.453125 -12.53125 L 4.453125 -9.890625 L 6.875 -9.890625 L 6.875 -7.734375 L 4.453125 -7.734375 L 4.453125 -3.53125 C 4.453125 -2.457031 4.894531 -1.921875 5.78125 -1.921875 C 6.050781 -1.921875 6.375 -1.988281 6.75 -2.125 L 7.1875 -0.125 C 6.46875 0.113281 5.757812 0.234375 5.0625 0.234375 Z M 5.0625 0.234375 "></path></g></g><g style="fill:#ffffff;fill-opacity:1;"><g transform="translate(6.474737, 19.09677)"><path style="stroke:none" d="M -3.46875 -0.5625 L -3.453125 -1.34375 L -3 -1.390625 L -3 -1.421875 C -3.164062 -1.597656 -3.289062 -1.773438 -3.375 -1.953125 C -3.46875 -2.140625 -3.507812 -2.34375 -3.5 -2.5625 C -3.5 -2.925781 -3.375 -3.191406 -3.125 -3.359375 C -2.882812 -3.535156 -2.539062 -3.617188 -2.09375 -3.609375 L 0.078125 -3.5625 L 0.0625 -2.59375 L -1.984375 -2.640625 C -2.242188 -2.640625 -2.425781 -2.601562 -2.53125 -2.53125 C -2.632812 -2.46875 -2.6875 -2.351562 -2.6875 -2.1875 C -2.6875 -2.0625 -2.660156 -1.945312 -2.609375 -1.84375 C -2.566406 -1.75 -2.476562 -1.628906 -2.34375 -1.484375 L 0.03125 -1.4375 L 0.015625 -0.484375 Z M -3.46875 -0.5625 "></path></g></g><g style="fill:#ffffff;fill-opacity:1;"><g transform="translate(6.511777, 15.357654)"><path style="stroke:none" d="M 0.65625 -1.375 C 0.507812 -1.03125 0.289062 -0.820312 0 -0.75 C -0.28125 -0.6875 -0.628906 -0.738281 -1.046875 -0.90625 L -3.046875 -1.71875 L -2.6875 -2.609375 L -0.796875 -1.84375 C -0.554688 -1.738281 -0.375 -1.703125 -0.25 -1.734375 C -0.132812 -1.765625 -0.046875 -1.859375 0.015625 -2.015625 C 0.0664062 -2.140625 0.0820312 -2.253906 0.0625 -2.359375 C 0.0390625 -2.472656 -0.015625 -2.613281 -0.109375 -2.78125 L -2.265625 -3.65625 L -1.890625 -4.546875 L 1.328125 -3.234375 L 1.03125 -2.515625 L 0.546875 -2.625 L 0.53125 -2.609375 C 0.65625 -2.390625 0.726562 -2.179688 0.75 -1.984375 C 0.769531 -1.785156 0.738281 -1.582031 0.65625 -1.375 Z M 0.65625 -1.375 "></path></g></g><g style="fill:#ffffff;fill-opacity:1;"><g transform="translate(8.031146, 11.854419)"><path style="stroke:none" d="M 1.21875 -1.3125 C 0.945312 -1 0.660156 -0.84375 0.359375 -0.84375 C 0.0664062 -0.851562 -0.234375 -0.992188 -0.546875 -1.265625 L -1.6875 -2.21875 L -2 -1.84375 L -2.546875 -2.3125 L -2.234375 -2.75 L -2.875 -3.421875 L -2.375 -4.03125 L -1.65625 -3.4375 L -1.09375 -4.09375 L -0.515625 -3.59375 L -1.078125 -2.9375 L 0.046875 -2 C 0.335938 -1.75 0.585938 -1.742188 0.796875 -1.984375 C 0.859375 -2.054688 0.910156 -2.160156 0.953125 -2.296875 L 1.59375 -1.96875 C 1.5 -1.71875 1.375 -1.5 1.21875 -1.3125 Z M 1.21875 -1.3125 "></path></g></g><g style="fill:#ffffff;fill-opacity:1;"><g transform="translate(9.710143, 9.848085)"><path style="stroke:none" d="M -1.59375 -3.140625 L -0.9375 -3.578125 L -0.546875 -3.109375 L -0.53125 -3.140625 C -0.550781 -3.378906 -0.523438 -3.597656 -0.453125 -3.796875 C -0.378906 -3.992188 -0.265625 -4.144531 -0.109375 -4.25 C 0.0234375 -4.351562 0.148438 -4.414062 0.265625 -4.4375 L 0.609375 -3.6875 C 0.597656 -3.664062 0.554688 -3.640625 0.484375 -3.609375 C 0.421875 -3.585938 0.351562 -3.550781 0.28125 -3.5 C 0.15625 -3.414062 0.0664062 -3.289062 0.015625 -3.125 C -0.0351562 -2.957031 -0.0351562 -2.75 0.015625 -2.5 L 1.1875 -0.8125 L 0.390625 -0.28125 Z M -1.59375 -3.140625 "></path></g></g><g style="fill:#ffffff;fill-opacity:1;"><g transform="translate(11.829235, 8.278122)"><path style="stroke:none" d="M 1.203125 1.078125 C 1.035156 1.128906 0.867188 1.15625 0.703125 1.15625 L 0.65625 0.390625 C 0.757812 0.390625 0.84375 0.382812 0.90625 0.375 C 1.1875 0.28125 1.332031 0.0625 1.34375 -0.28125 L 1.359375 -0.515625 L -0.96875 -3.34375 L -0.046875 -3.640625 L 0.921875 -2.28125 C 1.035156 -2.15625 1.171875 -1.972656 1.328125 -1.734375 C 1.398438 -1.617188 1.457031 -1.519531 1.5 -1.4375 L 1.515625 -1.4375 C 1.503906 -1.71875 1.488281 -2.054688 1.46875 -2.453125 L 1.421875 -4.109375 L 2.3125 -4.375 L 2.203125 -0.609375 C 2.179688 -0.128906 2.097656 0.238281 1.953125 0.5 C 1.816406 0.769531 1.566406 0.960938 1.203125 1.078125 Z M 1.203125 1.078125 "></path></g></g></g></svg><style>@media (prefers-color-scheme: light) { :root { filter: none; } }
@media (prefers-color-scheme: dark) { :root { filter: none; } }
</style></svg>