<svg xmlns="http://www.w3.org/2000/svg" xmlns:xlink="http://www.w3.org/1999/xlink" width="500" zoomAndPan="magnify" viewBox="0 0 375 374.999991" height="500" preserveAspectRatio="xMidYMid meet" version="1.2"><defs/><g id="85accbbd69"><rect x="0" width="375" y="0" height="374.999991" style="fill:#ffffff;fill-opacity:1;stroke:none;"/><rect x="0" width="375" y="0" height="374.999991" style="fill:#ffffff;fill-opacity:1;stroke:none;"/><g style="fill:#000000;fill-opacity:1;"><g transform="translate(88.911766, 119.874952)"><path style="stroke:none" d="M 4.078125 -29.703125 L 10.734375 -29.703125 L 11.34375 -25.859375 L 11.578125 -25.859375 C 13.015625 -27.253906 14.503906 -28.363281 16.046875 -29.1875 C 17.585938 -30.007812 19.300781 -30.421875 21.1875 -30.421875 C 24.300781 -30.421875 26.609375 -29.390625 28.109375 -27.328125 C 29.609375 -25.265625 30.359375 -22.316406 30.359375 -18.484375 L 30.359375 0 L 22.140625 0 L 22.140625 -17.453125 C 22.140625 -19.660156 21.828125 -21.203125 21.203125 -22.078125 C 20.585938 -22.960938 19.582031 -23.40625 18.1875 -23.40625 C 17.0625 -23.40625 16.078125 -23.160156 15.234375 -22.671875 C 14.398438 -22.191406 13.398438 -21.394531 12.234375 -20.28125 L 12.234375 0 L 4.078125 0 Z M 4.078125 -29.703125 "/></g></g><g style="fill:#000000;fill-opacity:1;"><g transform="translate(135.951729, 119.874952)"><path style="stroke:none" d="M 12.953125 0.71875 C 9.835938 0.71875 7.53125 -0.304688 6.03125 -2.359375 C 4.53125 -4.421875 3.78125 -7.375 3.78125 -11.21875 L 3.78125 -29.703125 L 11.9375 -29.703125 L 11.9375 -12.234375 C 11.9375 -10.078125 12.253906 -8.546875 12.890625 -7.640625 C 13.535156 -6.742188 14.554688 -6.296875 15.953125 -6.296875 C 17.117188 -6.296875 18.109375 -6.566406 18.921875 -7.109375 C 19.742188 -7.648438 20.65625 -8.5625 21.65625 -9.84375 L 21.65625 -29.703125 L 29.8125 -29.703125 L 29.8125 0 L 23.15625 0 L 22.5625 -4.203125 L 22.3125 -4.203125 C 20.957031 -2.597656 19.539062 -1.375 18.0625 -0.53125 C 16.582031 0.300781 14.878906 0.71875 12.953125 0.71875 Z M 12.953125 0.71875 "/></g></g><g style="fill:#000000;fill-opacity:1;"><g transform="translate(182.811689, 119.874952)"><path style="stroke:none" d="M 15.1875 0.71875 C 11.738281 0.71875 9.210938 -0.269531 7.609375 -2.25 C 6.015625 -4.226562 5.21875 -7 5.21875 -10.5625 L 5.21875 -23.21875 L 1.078125 -23.21875 L 1.078125 -29.34375 L 5.640625 -29.703125 L 6.59375 -37.625 L 13.375 -37.625 L 13.375 -29.703125 L 20.640625 -29.703125 L 20.640625 -23.21875 L 13.375 -23.21875 L 13.375 -10.625 C 13.375 -7.382812 14.695312 -5.765625 17.34375 -5.765625 C 18.175781 -5.765625 19.15625 -5.960938 20.28125 -6.359375 L 21.59375 -0.359375 C 19.4375 0.359375 17.300781 0.71875 15.1875 0.71875 Z M 15.1875 0.71875 "/></g></g><g style="fill:#000000;fill-opacity:1;"><g transform="translate(218.331664, 119.874952)"><path style="stroke:none" d="M 4.078125 -29.703125 L 10.734375 -29.703125 L 11.34375 -24.484375 L 11.578125 -24.484375 C 12.617188 -26.398438 13.890625 -27.867188 15.390625 -28.890625 C 16.890625 -29.910156 18.421875 -30.421875 19.984375 -30.421875 C 21.378906 -30.421875 22.535156 -30.21875 23.453125 -29.8125 L 22.078125 -22.734375 C 21.960938 -22.773438 21.601562 -22.863281 21 -23 C 20.394531 -23.144531 19.710938 -23.21875 18.953125 -23.21875 C 17.679688 -23.21875 16.441406 -22.753906 15.234375 -21.828125 C 14.035156 -20.910156 13.035156 -19.472656 12.234375 -17.515625 L 12.234375 0 L 4.078125 0 Z M 4.078125 -29.703125 "/></g></g><g style="fill:#000000;fill-opacity:1;"><g transform="translate(255.291637, 119.874952)"><path style="stroke:none" d="M 6.953125 11.8125 C 5.515625 11.8125 4.132812 11.613281 2.8125 11.21875 L 4.3125 4.921875 C 5.15625 5.203125 5.835938 5.34375 6.359375 5.34375 C 8.992188 5.34375 10.796875 3.898438 11.765625 1.015625 L 12.234375 -0.65625 L 0.71875 -29.703125 L 9 -29.703125 L 13.5 -16.3125 C 13.976562 -14.914062 14.539062 -13.054688 15.1875 -10.734375 C 15.457031 -9.660156 15.710938 -8.722656 15.953125 -7.921875 L 16.203125 -7.921875 C 16.722656 -10.203125 17.421875 -13 18.296875 -16.3125 L 22.203125 -29.703125 L 30.0625 -29.703125 L 19.625 0.65625 C 18.175781 4.5 16.507812 7.316406 14.625 9.109375 C 12.75 10.910156 10.191406 11.8125 6.953125 11.8125 Z M 6.953125 11.8125 "/></g></g><g style="fill:#1db309;fill-opacity:1;"><g transform="translate(53.444093, 290.749903)"><path style="stroke:none" d="M 29.203125 2.40625 C 24.398438 2.40625 20.398438 0.738281 17.203125 -2.59375 C 14.003906 -5.925781 12.40625 -10.128906 12.40625 -15.203125 C 12.40625 -20.265625 14.003906 -24.460938 17.203125 -27.796875 C 20.398438 -31.128906 24.398438 -32.796875 29.203125 -32.796875 C 34.003906 -32.796875 38.003906 -31.128906 41.203125 -27.796875 C 44.398438 -24.460938 46 -20.265625 46 -15.203125 C 46 -10.128906 44.398438 -5.925781 41.203125 -2.59375 C 38.003906 0.738281 34.003906 2.40625 29.203125 2.40625 Z M 29.203125 2.40625 "/></g></g><g style="fill:#1db309;fill-opacity:1;"><g transform="translate(111.842546, 290.749903)"><path style="stroke:none" d="M 57.203125 -121.40625 C 49.460938 -121.40625 45.59375 -116.40625 45.59375 -106.40625 L 45.59375 -99 L 63.796875 -99 L 63.796875 -77.40625 L 45.59375 -77.40625 L 45.59375 0 L 18.203125 0 L 18.203125 -77.40625 L 5 -77.40625 L 5 -97.796875 L 18.203125 -98.796875 L 18.203125 -105.796875 C 18.203125 -116.992188 21.035156 -125.992188 26.703125 -132.796875 C 32.367188 -139.597656 41.269531 -143 53.40625 -143 C 60.332031 -143 66.726562 -141.800781 72.59375 -139.40625 L 67.59375 -119.203125 C 64 -120.671875 60.535156 -121.40625 57.203125 -121.40625 Z M 57.203125 -121.40625 "/></g></g><g style="fill:#1db309;fill-opacity:1;"><g transform="translate(178.440771, 290.749903)"><path style="stroke:none" d="M 13.59375 -99 L 40.796875 -99 L 40.796875 0 L 13.59375 0 Z M 27.203125 -114.40625 C 22.671875 -114.40625 18.96875 -115.769531 16.09375 -118.5 C 13.226562 -121.226562 11.796875 -124.726562 11.796875 -129 C 11.796875 -133.269531 13.226562 -136.769531 16.09375 -139.5 C 18.96875 -142.226562 22.671875 -143.59375 27.203125 -143.59375 C 31.734375 -143.59375 35.429688 -142.226562 38.296875 -139.5 C 41.171875 -136.769531 42.609375 -133.269531 42.609375 -129 C 42.609375 -124.726562 41.171875 -121.226562 38.296875 -118.5 C 35.429688 -115.769531 31.734375 -114.40625 27.203125 -114.40625 Z M 27.203125 -114.40625 "/></g></g><g style="fill:#1db309;fill-opacity:1;"><g transform="translate(232.839319, 290.749903)"><path style="stroke:none" d="M 50.59375 2.40625 C 39.132812 2.40625 30.738281 -0.894531 25.40625 -7.5 C 20.070312 -14.101562 17.40625 -23.335938 17.40625 -35.203125 L 17.40625 -77.40625 L 3.59375 -77.40625 L 3.59375 -97.796875 L 18.796875 -99 L 22 -125.40625 L 44.59375 -125.40625 L 44.59375 -99 L 68.796875 -99 L 68.796875 -77.40625 L 44.59375 -77.40625 L 44.59375 -35.40625 C 44.59375 -24.601562 48.992188 -19.203125 57.796875 -19.203125 C 60.597656 -19.203125 63.863281 -19.867188 67.59375 -21.203125 L 72 -1.203125 C 64.800781 1.203125 57.664062 2.40625 50.59375 2.40625 Z M 50.59375 2.40625 "/></g></g></g></svg>