<svg xmlns="http://www.w3.org/2000/svg" xmlns:xlink="http://www.w3.org/1999/xlink" width="200" zoomAndPan="magnify" viewBox="0 0 150 53.039997" height="60" preserveAspectRatio="xMidYMid meet" version="1.2"><defs/><g id="a7980ca93f"><g style="fill:#000000;fill-opacity:1;"><g transform="translate(8.317855, 33.604086)"><path style="stroke:none" d="M 2.5 -18.140625 L 6.5625 -18.140625 L 6.921875 -15.796875 L 7.078125 -15.796875 C 7.953125 -16.648438 8.859375 -17.328125 9.796875 -17.828125 C 10.742188 -18.328125 11.789062 -18.578125 12.9375 -18.578125 C 14.84375 -18.578125 16.253906 -17.945312 17.171875 -16.6875 C 18.085938 -15.4375 18.546875 -13.640625 18.546875 -11.296875 L 18.546875 0 L 13.53125 0 L 13.53125 -10.671875 C 13.53125 -12.015625 13.335938 -12.953125 12.953125 -13.484375 C 12.578125 -14.023438 11.960938 -14.296875 11.109375 -14.296875 C 10.421875 -14.296875 9.820312 -14.148438 9.3125 -13.859375 C 8.800781 -13.566406 8.191406 -13.078125 7.484375 -12.390625 L 7.484375 0 L 2.5 0 Z M 2.5 -18.140625 "/></g></g><g style="fill:#000000;fill-opacity:1;"><g transform="translate(29.134622, 33.604086)"><path style="stroke:none" d="M 7.921875 0.4375 C 6.015625 0.4375 4.601562 -0.1875 3.6875 -1.4375 C 2.769531 -2.695312 2.3125 -4.503906 2.3125 -6.859375 L 2.3125 -18.140625 L 7.296875 -18.140625 L 7.296875 -7.484375 C 7.296875 -6.160156 7.488281 -5.222656 7.875 -4.671875 C 8.269531 -4.117188 8.894531 -3.84375 9.75 -3.84375 C 10.457031 -3.84375 11.0625 -4.007812 11.5625 -4.34375 C 12.0625 -4.675781 12.617188 -5.234375 13.234375 -6.015625 L 13.234375 -18.140625 L 18.21875 -18.140625 L 18.21875 0 L 14.15625 0 L 13.78125 -2.5625 L 13.640625 -2.5625 C 12.804688 -1.582031 11.9375 -0.835938 11.03125 -0.328125 C 10.125 0.179688 9.085938 0.4375 7.921875 0.4375 Z M 7.921875 0.4375 "/></g></g><g style="fill:#000000;fill-opacity:1;"><g transform="translate(49.841432, 33.604086)"><path style="stroke:none" d="M 9.28125 0.4375 C 7.175781 0.4375 5.632812 -0.164062 4.65625 -1.375 C 3.675781 -2.582031 3.1875 -4.273438 3.1875 -6.453125 L 3.1875 -14.1875 L 0.65625 -14.1875 L 0.65625 -17.921875 L 3.453125 -18.140625 L 4.03125 -22.984375 L 8.171875 -22.984375 L 8.171875 -18.140625 L 12.609375 -18.140625 L 12.609375 -14.1875 L 8.171875 -14.1875 L 8.171875 -6.484375 C 8.171875 -4.503906 8.976562 -3.515625 10.59375 -3.515625 C 11.101562 -3.515625 11.703125 -3.640625 12.390625 -3.890625 L 13.203125 -0.21875 C 11.878906 0.21875 10.570312 0.4375 9.28125 0.4375 Z M 9.28125 0.4375 "/></g></g><g style="fill:#000000;fill-opacity:1;"><g transform="translate(63.621546, 33.604086)"><path style="stroke:none" d="M 2.5 -18.140625 L 6.5625 -18.140625 L 6.921875 -14.953125 L 7.078125 -14.953125 C 7.710938 -16.128906 8.488281 -17.023438 9.40625 -17.640625 C 10.320312 -18.265625 11.253906 -18.578125 12.203125 -18.578125 C 13.054688 -18.578125 13.765625 -18.457031 14.328125 -18.21875 L 13.484375 -13.890625 C 13.410156 -13.910156 13.191406 -13.960938 12.828125 -14.046875 C 12.460938 -14.140625 12.046875 -14.1875 11.578125 -14.1875 C 10.796875 -14.1875 10.039062 -13.90625 9.3125 -13.34375 C 8.582031 -12.78125 7.972656 -11.898438 7.484375 -10.703125 L 7.484375 0 L 2.5 0 Z M 2.5 -18.140625 "/></g></g><g style="fill:#000000;fill-opacity:1;"><g transform="translate(78.281319, 33.604086)"><path style="stroke:none" d="M 4.25 7.21875 C 3.375 7.21875 2.53125 7.097656 1.71875 6.859375 L 2.640625 3 C 3.148438 3.175781 3.566406 3.265625 3.890625 3.265625 C 5.503906 3.265625 6.601562 2.382812 7.1875 0.625 L 7.484375 -0.40625 L 0.4375 -18.140625 L 5.5 -18.140625 L 8.25 -9.96875 C 8.539062 -9.113281 8.882812 -7.976562 9.28125 -6.5625 C 9.445312 -5.90625 9.601562 -5.332031 9.75 -4.84375 L 9.890625 -4.84375 C 10.210938 -6.226562 10.644531 -7.9375 11.1875 -9.96875 L 13.5625 -18.140625 L 18.359375 -18.140625 L 11.984375 0.40625 C 11.109375 2.75 10.09375 4.46875 8.9375 5.5625 C 7.789062 6.664062 6.226562 7.21875 4.25 7.21875 Z M 4.25 7.21875 "/></g></g><g style="fill:#1db309;fill-opacity:1;"><g transform="translate(95.002795, 33.604086)"><path style="stroke:none" d="M 5.359375 0.4375 C 4.472656 0.4375 3.734375 0.132812 3.140625 -0.46875 C 2.554688 -1.082031 2.265625 -1.851562 2.265625 -2.78125 C 2.265625 -3.707031 2.554688 -4.476562 3.140625 -5.09375 C 3.734375 -5.707031 4.472656 -6.015625 5.359375 -6.015625 C 6.234375 -6.015625 6.960938 -5.707031 7.546875 -5.09375 C 8.140625 -4.476562 8.4375 -3.707031 8.4375 -2.78125 C 8.4375 -1.851562 8.140625 -1.082031 7.546875 -0.46875 C 6.960938 0.132812 6.234375 0.4375 5.359375 0.4375 Z M 5.359375 0.4375 "/></g></g><g style="fill:#1db309;fill-opacity:1;"><g transform="translate(105.704368, 33.604086)"><path style="stroke:none" d="M 10.484375 -22.25 C 9.066406 -22.25 8.359375 -21.332031 8.359375 -19.5 L 8.359375 -18.140625 L 11.6875 -18.140625 L 11.6875 -14.1875 L 8.359375 -14.1875 L 8.359375 0 L 3.328125 0 L 3.328125 -14.1875 L 0.921875 -14.1875 L 0.921875 -17.921875 L 3.328125 -18.109375 L 3.328125 -19.390625 C 3.328125 -21.441406 3.847656 -23.085938 4.890625 -24.328125 C 5.929688 -25.578125 7.5625 -26.203125 9.78125 -26.203125 C 11.050781 -26.203125 12.226562 -25.984375 13.3125 -25.546875 L 12.390625 -21.84375 C 11.734375 -22.113281 11.097656 -22.25 10.484375 -22.25 Z M 10.484375 -22.25 "/></g></g><g style="fill:#1db309;fill-opacity:1;"><g transform="translate(117.908556, 33.604086)"><path style="stroke:none" d="M 2.5 -18.140625 L 7.484375 -18.140625 L 7.484375 0 L 2.5 0 Z M 4.984375 -20.96875 C 4.148438 -20.96875 3.46875 -21.21875 2.9375 -21.71875 C 2.414062 -22.21875 2.15625 -22.859375 2.15625 -23.640625 C 2.15625 -24.421875 2.414062 -25.0625 2.9375 -25.5625 C 3.46875 -26.0625 4.148438 -26.3125 4.984375 -26.3125 C 5.816406 -26.3125 6.492188 -26.0625 7.015625 -25.5625 C 7.546875 -25.0625 7.8125 -24.421875 7.8125 -23.640625 C 7.8125 -22.859375 7.546875 -22.21875 7.015625 -21.71875 C 6.492188 -21.21875 5.816406 -20.96875 4.984375 -20.96875 Z M 4.984375 -20.96875 "/></g></g><g style="fill:#1db309;fill-opacity:1;"><g transform="translate(127.877149, 33.604086)"><path style="stroke:none" d="M 9.28125 0.4375 C 7.175781 0.4375 5.632812 -0.164062 4.65625 -1.375 C 3.675781 -2.582031 3.1875 -4.273438 3.1875 -6.453125 L 3.1875 -14.1875 L 0.65625 -14.1875 L 0.65625 -17.921875 L 3.453125 -18.140625 L 4.03125 -22.984375 L 8.171875 -22.984375 L 8.171875 -18.140625 L 12.609375 -18.140625 L 12.609375 -14.1875 L 8.171875 -14.1875 L 8.171875 -6.484375 C 8.171875 -4.503906 8.976562 -3.515625 10.59375 -3.515625 C 11.101562 -3.515625 11.703125 -3.640625 12.390625 -3.890625 L 13.203125 -0.21875 C 11.878906 0.21875 10.570312 0.4375 9.28125 0.4375 Z M 9.28125 0.4375 "/></g></g></g></svg>